<?xml version="1.0" encoding="UTF-8" standalone="no"?>
<svg
   aria-hidden="true"
   role="img"
   class="iconify iconify--logos"
   width="35.929825"
   height="31.967274"
   preserveAspectRatio="xMidYMid meet"
   viewBox="0 0 255.99875 227.76683"
   version="1.1"
   id="svg4"
   sodipodi:docname="react.svg"
   inkscape:version="1.1.1 (3bf5ae0d25, 2021-09-20)"
   xmlns:inkscape="http://www.inkscape.org/namespaces/inkscape"
   xmlns:sodipodi="http://sodipodi.sourceforge.net/DTD/sodipodi-0.dtd"
   xmlns="http://www.w3.org/2000/svg"
   xmlns:svg="http://www.w3.org/2000/svg">
  <defs
     id="defs8" />
  <sodipodi:namedview
     id="namedview6"
     pagecolor="#ffffff"
     bordercolor="#666666"
     borderopacity="1.0"
     inkscape:pageshadow="2"
     inkscape:pageopacity="0.0"
     inkscape:pagecheckerboard="0"
     showgrid="false"
     fit-margin-top="0"
     fit-margin-left="0"
     fit-margin-right="0"
     fit-margin-bottom="0"
     inkscape:zoom="12.359375"
     inkscape:cx="17.962073"
     inkscape:cy="9.8710493"
     inkscape:window-width="1920"
     inkscape:window-height="976"
     inkscape:window-x="-8"
     inkscape:window-y="-8"
     inkscape:window-maximized="1"
     inkscape:current-layer="svg4" />
  <path
     fill="#00d8ff"
     d="m 210.48237,73.823825 a 171.49,171.49 0 0 0 -8.24,-2.597 c 0.465,-1.9 0.893,-3.777 1.273,-5.621 6.238,-30.281 2.16,-54.676 -11.769,-62.7080005 -13.355,-7.7 -35.196,0.329 -57.254,19.5260005 a 171.23,171.23 0 0 0 -6.375,5.848 155.866,155.866 0 0 0 -4.241,-3.917 C 100.75837,3.8288245 77.586377,-4.8221755 63.672377,3.2328245 c -13.343,7.7240005 -17.294,30.6570005 -11.678,59.3550005 a 170.974,170.974 0 0 0 1.892,8.48 c -3.28,0.932 -6.445,1.924 -9.474,2.98 -27.104,9.45 -44.41300004359,24.259 -44.41300004359,39.620005 0,15.865 18.58200004359,31.778 46.81200004359,41.427 a 145.52,145.52 0 0 0 6.921,2.165 167.467,167.467 0 0 0 -2.01,9.138 c -5.354,28.2 -1.173,50.591 12.134,58.266 13.744,7.926 36.811993,-0.22 59.272993,-19.855 a 145.567,145.567 0 0 0 5.342,-4.923 168.064,168.064 0 0 0 6.92,6.314 c 21.758,18.722 43.246,26.282 56.54,18.586 13.731,-7.949 18.194,-32.003 12.4,-61.268 a 145.016,145.016 0 0 0 -1.535,-6.842 c 1.62,-0.48 3.21,-0.974 4.76,-1.488 29.348,-9.723 48.443,-25.443 48.443,-41.52 0,-15.417005 -17.868,-30.326005 -45.517,-39.844005 z m -6.365,70.984005 c -1.4,0.463 -2.836,0.91 -4.3,1.345 -3.24,-10.257 -7.612,-21.163 -12.963,-32.432 5.106,-11 9.31,-21.767005 12.459,-31.957005 2.619,0.758 5.16,1.557 7.61,2.4 23.69,8.156 38.14,20.213005 38.14,29.504005 0,9.896 -15.606,22.743 -40.946,31.14 z m -10.514,20.834 c 2.562,12.94 2.927,24.64 1.23,33.787 -1.524,8.219 -4.59,13.698 -8.382,15.893 -8.067,4.67 -25.32,-1.4 -43.927,-17.412 a 156.726,156.726 0 0 1 -6.437,-5.87 c 7.214,-7.889 14.423,-17.06 21.459,-27.246 12.376,-1.098 24.068,-2.894 34.671,-5.345 a 134.17,134.17 0 0 1 1.386,6.193 z m -106.327993,48.873 c -7.882,2.783 -14.16,2.863 -17.955,0.675 -8.075,-4.657 -11.432,-22.636 -6.853,-46.752 a 156.923,156.923 0 0 1 1.869,-8.499 c 10.486,2.32 22.093,3.988 34.498,4.994 7.083993,9.967 14.500993,19.128 21.975993,27.15 a 134.668,134.668 0 0 1 -4.877,4.492 c -9.933,8.682 -19.885993,14.842 -28.657993,17.94 z m -36.926,-69.768 c -12.483,-4.267 -22.792,-9.812 -29.858,-15.863 -6.35,-5.437 -9.555,-10.836 -9.555,-15.216 0,-9.322 13.897,-21.212005 37.076,-29.293005 2.813,-0.98 5.757,-1.905 8.812,-2.773 3.204,10.42 7.406,21.315005 12.477,32.332005 -5.137,11.18 -9.399,22.249 -12.634,32.792 a 134.718,134.718 0 0 1 -6.318,-1.979 z m 12.378,-84.260005 c -4.811,-24.587 -1.616,-43.134 6.425,-47.789 8.564,-4.9580005 27.502,2.111 47.462993,19.835 a 144.318,144.318 0 0 1 3.841,3.545 c -7.438,7.987 -14.787,17.08 -21.807993,26.988 -12.04,1.116 -23.565,2.908 -34.161,5.309 a 160.342,160.342 0 0 1 -1.76,-7.887 z m 110.426993,27.268 a 347.8,347.8 0 0 0 -7.785,-12.803 c 8.168,1.033 15.994,2.404 23.343,4.08 -2.206,7.072 -4.956,14.465 -8.193,22.045005 a 381.151,381.151 0 0 0 -7.365,-13.322005 z m -45.032,-43.861 c 5.044,5.465 10.096,11.566 15.065,18.186 a 322.04,322.04 0 0 0 -30.257,-0.006 c 4.974,-6.559 10.069,-12.652 15.192,-18.18 z m -45.320993,43.936 a 323.167,323.167 0 0 0 -7.227,13.238005 c -3.184,-7.553005 -5.909,-14.980005 -8.134,-22.152005 7.304,-1.634 15.093,-2.97 23.209,-3.984 a 321.524,321.524 0 0 0 -7.848,12.897 z m 8.081,65.352005 c -8.385,-0.936 -16.291,-2.203 -23.593,-3.793 2.26,-7.3 5.045,-14.885 8.298,-22.6 a 321.187,321.187 0 0 0 7.257,13.246 c 2.594,4.48 5.28,8.868 8.038,13.147 z m 37.541993,31.03 c -5.184,-5.592 -10.354,-11.779 -15.403,-18.433 4.902,0.192 9.899,0.29 14.978,0.29 5.218,0 10.376,-0.117 15.453,-0.343 -4.985,6.774 -10.018,12.97 -15.028,18.486 z m 52.198,-57.817 c 3.422,7.8 6.306,15.345 8.596,22.52 -7.422,1.694 -15.436,3.058 -23.88,4.071 a 382.417,382.417 0 0 0 7.859,-13.026 347.403,347.403 0 0 0 7.425,-13.565 z m -16.898,8.101 a 358.557,358.557 0 0 1 -12.281,19.815 329.4,329.4 0 0 1 -23.444,0.823 c -7.967,0 -15.716,-0.248 -23.178,-0.732 a 310.202,310.202 0 0 1 -12.512993,-19.846 h 0.001 a 307.41,307.41 0 0 1 -10.923,-20.627 310.278,310.278 0 0 1 10.89,-20.637005 l -10e-4,10e-4 a 307.318,307.318 0 0 1 12.412993,-19.761 c 7.613,-0.576 15.42,-0.876 23.31,-0.876 h 0.001 c 7.926,0 15.743,0.303 23.354,0.883 a 329.357,329.357 0 0 1 12.335,19.695 358.489,358.489 0 0 1 11.036,20.540005 329.472,329.472 0 0 1 -11,20.722 z m 22.56,-122.124005 c 8.572,4.944 11.906,24.881 6.52,51.026 -0.344,1.668 -0.73,3.367 -1.15,5.09 -10.622,-2.452 -22.155,-4.275 -34.23,-5.408 -7.034,-10.017 -14.323,-19.124 -21.64,-27.008 a 160.789,160.789 0 0 1 5.888,-5.4 c 18.9,-16.447 36.564,-22.9410005 44.612,-18.3 z m -58.285,78.436 c 12.625,0 22.86,10.235005 22.86,22.860005 0,12.625 -10.235,22.86 -22.86,22.86 -12.625,0 -22.86,-10.235 -22.86,-22.86 0,-12.625 10.235,-22.860005 22.86,-22.860005 z"
     id="path2" />
</svg>
