<?xml version="1.0" encoding="UTF-8" standalone="no"?>
<svg
   aria-hidden="true"
   role="img"
   class="iconify iconify--logos"
   width="26.597338"
   height="31.964516"
   preserveAspectRatio="xMidYMid meet"
   viewBox="0 0 255.97437 307.65846"
   version="1.1"
   id="svg6"
   sodipodi:docname="svelte.svg"
   inkscape:version="1.1.1 (3bf5ae0d25, 2021-09-20)"
   xmlns:inkscape="http://www.inkscape.org/namespaces/inkscape"
   xmlns:sodipodi="http://sodipodi.sourceforge.net/DTD/sodipodi-0.dtd"
   xmlns="http://www.w3.org/2000/svg"
   xmlns:svg="http://www.w3.org/2000/svg">
  <defs
     id="defs10" />
  <sodipodi:namedview
     id="namedview8"
     pagecolor="#ffffff"
     bordercolor="#666666"
     borderopacity="1.0"
     inkscape:pageshadow="2"
     inkscape:pageopacity="0.0"
     inkscape:pagecheckerboard="0"
     showgrid="false"
     fit-margin-top="0"
     fit-margin-left="0"
     fit-margin-right="0"
     fit-margin-bottom="0"
     inkscape:zoom="12.359375"
     inkscape:cx="13.269279"
     inkscape:cy="16.020228"
     inkscape:window-width="1920"
     inkscape:window-height="976"
     inkscape:window-x="-8"
     inkscape:window-y="-8"
     inkscape:window-maximized="1"
     inkscape:current-layer="svg6" />
  <path
     fill="#ff3e00"
     d="m 239.66941,40.707093 c -28.569,-40.88900016 -84.992,-53.008 -125.787,-27.017 l -71.647992,45.666 a 82.198,82.198 0 0 0 -37.1350005,55.055997 86.566,86.566 0 0 0 8.5360005,55.576 82.425,82.425 0 0 0 -12.2960005,30.719 87.596,87.596 0 0 0 14.9640005,66.244 c 28.574,40.893 84.996992,53.007 125.786992,27.016 l 71.648,-45.664 a 82.182,82.182 0 0 0 37.135,-55.057 86.601,86.601 0 0 0 -8.53,-55.577 82.409,82.409 0 0 0 12.29,-30.718 87.573,87.573 0 0 0 -14.963,-66.243997"
     id="path2" />
  <path
     fill="#ffffff"
     d="m 106.87678,270.83273 c -23.101994,6.007 -47.496994,-3.036 -61.102994,-22.648 a 52.685,52.685 0 0 1 -9.003,-39.85 49.978,49.978 0 0 1 1.713,-6.693 l 1.35,-4.115 3.671,2.697 a 92.447,92.447 0 0 0 28.036,14.007 l 2.663,0.808 -0.245,2.659 a 16.067,16.067 0 0 0 2.89,10.656 17.143,17.143 0 0 0 18.397,6.828 15.786,15.786 0 0 0 4.403,-1.935 l 71.669994,-45.672 a 14.922,14.922 0 0 0 6.734,-9.977 15.923,15.923 0 0 0 -2.713,-12.011 17.156,17.156 0 0 0 -18.404,-6.832 15.78,15.78 0 0 0 -4.396,1.933 l -27.35,17.434 a 52.298,52.298 0 0 1 -14.553,6.391 c -23.100994,6.007 -47.496994,-3.036 -61.100994,-22.649 a 52.681,52.681 0 0 1 -9.004,-39.849 49.428,49.428 0 0 1 22.34,-33.114 l 71.663994,-45.677 a 52.218,52.218 0 0 1 14.563,-6.398 c 23.101,-6.007 47.497,3.036 61.101,22.648 a 52.685,52.685 0 0 1 9.004,39.85 50.559,50.559 0 0 1 -1.713,6.692 l -1.35,4.116 -3.67,-2.693 a 92.373,92.373 0 0 0 -28.037,-14.013 l -2.664,-0.809 0.246,-2.658 a 16.099,16.099 0 0 0 -2.89,-10.656 17.143,17.143 0 0 0 -18.398,-6.828 15.786,15.786 0 0 0 -4.402,1.935 l -71.669994,45.674 a 14.898,14.898 0 0 0 -6.73,9.975 15.9,15.9 0 0 0 2.709,12.012 17.156,17.156 0 0 0 18.404,6.832 15.841,15.841 0 0 0 4.401994,-1.935 l 27.345,-17.427 a 52.147,52.147 0 0 1 14.552,-6.397 c 23.101,-6.006 47.497,3.037 61.102,22.65 a 52.681,52.681 0 0 1 9.003,39.848 49.453,49.453 0 0 1 -22.34,33.12 l -71.664,45.673 a 52.218,52.218 0 0 1 -14.563,6.398"
     id="path4" />
</svg>
