<?xml version="1.0" encoding="UTF-8" standalone="no"?>
<svg
   aria-hidden="true"
   role="img"
   class="iconify iconify--logos"
   width="43.094299"
   height="30.641924"
   viewBox="-20 -20 127.55913 85.797387"
   version="1.1"
   id="svg10"
   sodipodi:docname="ws.svg"
   inkscape:version="1.1.1 (3bf5ae0d25, 2021-09-20)"
   xmlns:inkscape="http://www.inkscape.org/namespaces/inkscape"
   xmlns:sodipodi="http://sodipodi.sourceforge.net/DTD/sodipodi-0.dtd"
   xmlns="http://www.w3.org/2000/svg"
   xmlns:svg="http://www.w3.org/2000/svg">
  <defs
     id="defs14" />
  <sodipodi:namedview
     id="namedview12"
     pagecolor="#ffffff"
     bordercolor="#666666"
     borderopacity="1.0"
     inkscape:pageshadow="2"
     inkscape:pageopacity="0.0"
     inkscape:pagecheckerboard="0"
     showgrid="false"
     fit-margin-top="0"
     fit-margin-left="0"
     fit-margin-right="0"
     fit-margin-bottom="0"
     inkscape:zoom="19.775"
     inkscape:cx="18.103666"
     inkscape:cy="11.984829"
     inkscape:window-width="1920"
     inkscape:window-height="976"
     inkscape:window-x="-8"
     inkscape:window-y="-8"
     inkscape:window-maximized="1"
     inkscape:current-layer="svg10" />
  <g
     id="Symbols"
     stroke="none"
     stroke-width="1"
     fill="none"
     fill-rule="evenodd"
     transform="translate(-20.431671,-23.084534)">
    <g
       id="Logo-/-Icon"
       transform="translate(-36,-54)"
       fill-rule="nonzero">
      <g
         id="Icon"
         transform="translate(36,54)">
        <path
           d="M 10.9,1.77 C 10.77,1.72 10.64,1.67 10.51,1.62 8.64,0.98 6.8,0.76 5,1.06 c 0,0 0.18,-0.08 0.58,-0.15 6.32,-1.46 19.29,2.87 43.82,12.64 0,0 0,0 0,0 7.3,3.33 13.2,3.29 25.25,40.9 7.88,24.58 13.84,37.61 21.77,35.6 -1.9,0.82 -4.07,1.29 -6.56,1.24 0,0 -16.76,1.77 -28.97,-17.33 C 50.04,57.01 29.83,10.1 11.72,2.1 11.61,2.05 11.5,2.01 11.4,1.96 11.23,1.9 11.07,1.83 10.9,1.77 Z"
           id="Shape"
           fill="#005c85" />
        <path
           d="m 117.52,1.77 c 0.13,-0.05 0.26,-0.1 0.39,-0.15 1.87,-0.64 3.71,-0.86 5.51,-0.56 0,0 -0.18,-0.08 -0.58,-0.15 -6.32,-1.46 -19.29,2.87 -43.82,12.64 0,0 0,0 0,0 -7.3,3.33 -13.2,3.29 -25.25,40.9 -7.88,24.58 -13.84,37.61 -21.77,35.6 1.9,0.82 4.07,1.29 6.56,1.24 0,0 16.76,1.77 28.97,-17.33 C 78.38,57 98.59,10.08 116.7,2.09 c 0.11,-0.05 0.22,-0.09 0.32,-0.14 0.18,-0.05 0.34,-0.12 0.5,-0.18 z"
           id="path3"
           fill="#0078a5" />
        <path
           d="M 0.77,15.61 C -1.34,-4 5.43,-4 49.51,13.56 c 0,0 -18.35,-4.29 -24.58,21.6 C 18.81,60.6 25.72,89.69 36.28,91.2 26.96,90.08 22.81,81.63 19.94,76.1 15.81,68.13 2.88,35.21 0.77,15.61 Z m 126.88,0 c -2.11,19.6 -15.04,52.52 -19.17,60.49 -2.87,5.53 -7.02,13.98 -16.34,15.1 C 102.7,89.69 109.61,60.6 103.49,35.16 97.26,9.27 78.91,13.56 78.91,13.56 122.99,-4 129.77,-4 127.65,15.61 Z"
           id="path5"
           fill="#0099cf" />
      </g>
    </g>
  </g>
</svg>
